<?xml version="1.0" encoding="UTF-8" standalone="no"?>
<svg viewBox="0 0 50 50" xmlns="http://www.w3.org/2000/svg">
<title>personnage</title>
<g enable-background="new" transform="matrix(.851555,.39647,-.39647,.851555,666.16028,-129.01899)">
<g transform="matrix(.555398,.144697,-.144697,.555398,-602.04498,399.809)">
<path d="m86.28014,33.35815c-3.37088.33889-7.742,4.26185-10.71647,9.99112-3.44844,6.6422-2.19056,14.3916.64769,16.59856 0,0 3.78683,2.03441.51121.37744l8.14909,4.40445 18.33936-21.44724-14.81035-9.73182-.07391.12205c-.61944-.28937-1.30711-.3889-2.04661-.31456z" fill-rule="evenodd"/>
<path d="m97.48166,38.62666-.53163-1.16326-7.5919-2.93648c0,0-4.13104-.22095-7.95709,3.71508s-3.06135,5.92542-3.06135,5.92542l6.74094,3.56418 12.40104-9.10495z" fill="#fff" fill-rule="evenodd"/>
</g>
<g transform="matrix(.629925,0,0,.563783,-615.8985,411.9547)">
<path d="m99.74126,7.47816c-3.35908,1.51085-6.32874,3.21248-9.112,9.06234-3.22676,6.78202-3.48884,13.65596-.74032,15.95873v.0249l.18508.12448c.11593.08481.24443.17969.37016.24897 .05239.02887.10849.0489.16195.07469l9.20775,5.65153 19.67773-15.65358 .5602-4.82979c-2.37273-2.99183-3.32219-4.19642-8.42353-9.24314-4.51353-3.65057-8.56807-2.2893-11.88701-1.41914z" fill-rule="evenodd"/>
<path d="m115.819,16.06905v-1.27898l-5.43903-4.83825c0,0-4.1554-3.32219-9.27133-1.33266s-5.41077,4.26306-5.41077,4.26306l5.05755,6.31323 15.06358-3.1264z" fill="#fff" fill-rule="evenodd"/>
</g>
<path d="m-552.55542,418.414-15.98056,30.7594 11.26351,11.0662 15.78327-2.2599 13.61307-27.1902 .12555-.2691-8.41177-8.8243-16.39307-3.2821z" fill="#fff" fill-rule="evenodd" stroke="#000" stroke-width="1.06459"/>
<path d="m-552.55542,418.414-16.0373,30.63754 11.32025,11.18806h.0359l.17936-.4125 15.27506-30.7936-10.77324-10.6195h-3e-005z" fill-rule="evenodd"/>
<path d="m-541.07412,431.1306-12.7086,26.0322 10.8638-1.4348 11.68372-23.3675-9.83892-1.2299z" fill-rule="evenodd" stroke="#f9f9f9" stroke-width=".57394"/>
</g>
</svg>
